<?xml version="1.0" encoding="UTF-8"?>
<svg width="638px" height="390px" viewBox="0 0 638 390" version="1.1" xmlns="http://www.w3.org/2000/svg" xmlns:xlink="http://www.w3.org/1999/xlink">
    <title>Shape</title>
    <g id="Pages" stroke="none" stroke-width="1" fill="none" fill-rule="evenodd">
        <g id="Startseite" transform="translate(-924.000000, -299.000000)" fill="#EEECE4">
            <path d="M1500.22408,287.506005 L1499.96213,287.421951 C1499.90481,287.40734 1499.84984,287.401017 1499.80078,287.414132 C1499.66941,287.446048 1499.56539,287.595594 1499.44773,287.694326 L1499.7037,287.77998 C1499.75893,287.795149 1499.81167,287.802065 1499.85915,287.789372 C1499.99763,287.752352 1500.10641,287.604737 1500.22408,287.506005 Z M1472.24055,294.285088 L1471.97958,294.623957 L1472.40001,294.799891 L1472.50077,294.668005 C1472.52012,294.639509 1472.53162,294.614136 1472.52364,294.597048 C1472.45907,294.482959 1472.33596,294.387725 1472.24055,294.285088 Z M1443.55965,296.626653 L1443.42163,296.441429 C1443.39686,296.411745 1443.37,296.383684 1443.33929,296.358791 C1443.31228,296.337178 1443.10894,296.401147 1443.10034,296.432279 C1443.0754,296.544668 1443.09403,296.661424 1443.09524,296.776433 L1443.55965,296.626653 L1443.55965,296.626653 Z M1448.66117,295.3055 L1448.61924,295.077639 C1448.61704,295.069205 1448.61516,295.064712 1448.61358,295.065135 C1448.34917,295.106985 1448.08402,295.161849 1447.82203,295.212667 L1447.84818,295.333923 C1447.85432,295.357552 1447.8611,295.373937 1447.86933,295.373017 C1448.12514,295.362299 1448.38879,295.333462 1448.66117,295.3055 Z M1508.1769,285.0831 C1508.06318,284.928775 1507.97836,284.728004 1507.90267,284.736145 C1507.65883,284.774822 1507.41753,284.886478 1507.1769,284.969117 C1507.28216,285.106566 1507.36642,285.368359 1507.48724,285.36054 C1507.65914,285.353952 1507.84685,285.246623 1508.03549,285.150931 L1508.1769,285.0831 Z M1513.87839,281 L1515.07051,280.862402 L1515.47912,280.809927 C1516.71626,280.640861 1516.74789,280.515815 1516.87839,280 C1515.90766,280.145912 1515.11941,280.491767 1513.87839,281 Z M1450.49014,292.518337 C1451.21251,292.500297 1451.50595,292.237752 1451.48949,291.862032 C1451.48176,291.619298 1451.30789,291.37636 1451.12868,291.183871 C1450.92732,290.962933 1451.05054,290.51406 1450.5239,290.518368 L1450.50565,291.687235 L1450.49014,292.518337 Z M1511.00335,427.860546 L1511.04209,427.842203 L1508.92167,427.077483 C1508.4787,428.148446 1509.44092,428.506833 1509.63702,429.115921 C1510.04111,430.380087 1509.7608,430.996366 1508.2162,431.580825 C1506.72027,432.147974 1505.20154,432.645621 1503.7047,433.209233 C1502.75305,433.564545 1502.20282,434.145832 1502.42824,435.148698 C1503.35624,435.524175 1504.45616,435.779856 1505.67257,435.794642 L1511.3043,435.864716 C1512.49725,435.882224 1513.43576,436.16757 1513.65015,437.370672 L1513.2168,437.731331 C1513.0635,437.857801 1512.90107,437.986333 1512.72868,438.10436 C1511.12091,439.210663 1510.68003,440.364464 1511.54843,441.780257 C1511.8987,442.350319 1511.90418,443.156435 1511.7911,443.858978 C1511.62967,444.935162 1510.84656,445.75555 1509.52909,446.265548 C1508.1855,446.786596 1506.64679,446.982664 1505.37295,448.109972 C1505.74785,448.233352 1505.97034,448.383893 1506.21217,448.384978 C1507.99278,448.383356 1509.77176,448.375444 1511.55313,448.36013 L1514.22746,448.331468 C1515.8591,448.312303 1517.38398,448.326019 1518.86427,448.907077 L1519.23345,449.06447 C1520.51321,449.660752 1522.36208,449.655336 1524.00446,449.692105 C1529.54344,449.814484 1535.11527,449.783651 1540.65065,449.91082 C1542.96986,449.968152 1545.25901,450.208249 1547.52119,450.474799 C1549.78623,450.741445 1551.88607,451.3126 1553.45951,452.598378 L1553.74827,452.847936 C1554.46154,453.495387 1555.3246,453.619685 1556.4342,453.277379 C1556.71542,453.187897 1557.05517,453.32483 1557.48122,453.365752 L1556.67059,456.154106 L1558.59842,457.594158 C1558.30479,458.009384 1558.12514,458.510495 1557.71556,458.794881 C1555.08977,460.635145 1552.97729,462.96606 1549.95767,464.422785 C1549.7775,464.510741 1549.67808,464.72415 1549.53423,464.877854 C1550.08399,466.518652 1551.00702,466.762797 1552.35656,465.61067 C1553.10603,464.977838 1553.80213,464.306745 1554.65939,463.530224 L1557.85335,463.962653 C1557.14666,465.228197 1556.11355,466.0346 1555.05313,466.772752 C1553.04394,468.176341 1552.3931,469.938256 1552.14153,471.824368 C1552.03785,472.638051 1552.87609,473.152209 1553.84236,472.8535 C1555.25122,472.416704 1556.6455,471.942245 1558.1462,471.449605 L1560.9194,472.852036 C1561.17949,473.788399 1560.78807,474.532469 1560.26288,475.23332 L1559.83452,475.788731 C1559.05962,476.801975 1558.3946,477.803801 1558.62163,478.764512 L1555.81946,481.013683 C1555.11709,481.581442 1554.44699,482.136243 1553.80047,482.70846 C1552.81721,483.576855 1552.81472,484.426893 1553.76453,485.111025 C1555.0825,486.0607 1556.51564,486.913928 1558.03586,487.898433 L1557.21755,489.475566 C1557.0797,489.739671 1556.93985,490.006437 1556.79612,490.278918 C1557.06819,490.938948 1557.52806,491.634027 1557.64348,492.398232 C1557.875,493.975597 1557.71965,495.503159 1555.95301,496.807728 L1555.7237,496.969626 C1554.63349,497.704676 1553.74795,498.652097 1552.82759,499.446144 L1552.99191,499.906397 C1553.29952,500.808015 1553.21483,501.001842 1552.56555,502.487846 L1555.11972,503.697064 C1554.56237,504.045241 1554.2396,504.385141 1553.9086,504.431572 C1552.67482,504.611199 1552.09402,505.223727 1551.78835,506.339972 L1554.08417,506.680596 C1554.05079,506.943913 1554.10298,507.164504 1553.9933,507.282177 C1553.61559,507.652503 1553.20718,508.016189 1552.75527,508.323707 L1549.91157,510.266485 L1544.21028,514.139885 C1543.94291,514.320314 1543.70088,514.524037 1543.2491,514.869436 L1544.25321,514.823526 C1545.25764,514.765939 1545.46308,514.683986 1546.4577,514.31195 L1547.48643,513.91545 C1547.82943,513.784633 1548.17323,513.659904 1548.51996,513.555473 L1549.04252,513.415828 C1549.9811,513.196855 1550.92139,512.423817 1552.01439,513.026469 C1551.80195,514.317404 1551.38647,515.531271 1549.88903,516.424545 L1549.64348,516.562888 C1549.15186,516.825822 1548.66105,517.143826 1548.26239,517.502503 L1548.03499,517.722476 C1546.43453,519.380341 1544.34493,520.49155 1542.26356,521.634598 C1541.51964,522.045967 1540.82563,522.538268 1540.17356,523.155424 C1541.9594,522.924846 1543.58923,523.511108 1545.36456,522.847401 C1545.70973,522.72499 1546.26773,522.827848 1546.59761,522.982688 C1548.03742,523.674813 1549.56843,523.3368 1551.11492,522.778358 C1551.96838,522.473065 1552.77351,522.018154 1553.63886,521.758851 C1554.23469,521.5782 1554.89172,521.615636 1555.99491,521.510195 C1554.42019,523.304998 1553.73506,525.065063 1551.53963,525.841657 L1551.31529,528.300339 C1549.82967,530.290315 1547.10708,531.008571 1544.80393,532.471054 L1542.90094,535.89268 C1543.35035,536.495873 1544.02567,536.522304 1544.69218,536.45947 L1545.34707,536.384935 C1548.19109,536.080375 1550.93511,535.2955 1553.5814,534.169968 L1554.61832,533.711909 C1555.31329,533.412999 1556.0341,533.161403 1556.89133,533.163459 C1556.78621,533.82208 1556.77667,534.457949 1556.57214,535.068349 C1556.40065,535.582358 1556.13569,536.201957 1555.66856,536.544037 C1554.50748,537.397358 1553.89074,538.319412 1553.85154,539.51332 L1553.8372,539.918922 L1553.83476,540.153754 C1553.84376,540.811957 1554.02514,541.106686 1555.07086,542.473469 C1553.9291,544.223853 1551.90979,545.307956 1549.93889,546.298989 C1545.99707,548.281055 1541.97452,550.137668 1537.94922,551.983668 C1536.45101,552.672788 1536.01581,553.904637 1535.17377,554.908226 C1534.54025,555.671898 1534.3216,556.638849 1533.932,557.486444 L1535.46528,558.857869 L1530.66575,561.483871 C1530.69227,562.109725 1531.16058,562.108575 1531.58812,562.061871 C1533.15218,561.889097 1534.71794,561.685518 1536.30539,561.491082 C1536.5966,561.944834 1536.77846,562.349332 1537.08457,562.67382 C1537.38885,562.991233 1537.81737,563.228636 1538.2941,563.577778 C1537.11767,564.689409 1536.47539,565.792977 1536.42332,567.180046 C1536.39241,567.96185 1535.84366,568.827756 1535.29313,569.622946 L1534.99576,570.048742 C1534.40581,570.887523 1534.2474,571.526823 1534.72034,572.347192 C1535.52243,573.724964 1535.2638,574.265013 1533.77393,575.234939 L1533.58922,575.353475 C1532.47184,576.058156 1531.44141,576.856232 1530.21272,577.728331 C1528.1488,577.649388 1525.95279,577.993887 1523.71896,578.621897 C1521.89079,579.137237 1520.59835,579.837458 1520.06143,581.404686 C1519.94979,581.739032 1519.5502,582.043393 1519.25362,582.391185 L1517.68029,582.4907 C1517.33883,582.907832 1517.01979,583.542454 1516.45806,583.929764 C1515.84539,584.346931 1515.10304,584.646898 1514.36829,584.925255 L1514.00218,585.063075 C1510.4795,586.386516 1506.95498,587.702881 1503.40865,588.972221 C1497.49567,591.084668 1491.5663,593.152376 1485.64602,595.236521 L1477.46286,598.126384 C1476.09884,598.606481 1474.73404,599.084967 1473.36744,599.560587 C1472.23388,599.955049 1471.09007,600.320365 1469.94176,600.670932 L1468.79218,601.017116 C1463.93256,602.467941 1459.13561,604.102091 1454.22092,605.431731 L1452.37204,605.91512 C1446.8563,607.302976 1441.4735,609.298507 1436.02388,611.016842 C1434.49816,611.49368 1432.9696,611.959511 1431.44009,612.421674 L1413.3825,617.862655 L1405.50588,620.225678 C1402.88201,621.015103 1400.26029,621.810563 1397.64225,622.624908 C1392.29257,624.281359 1386.98392,626.059126 1381.63783,627.710787 C1373.66152,630.176385 1365.66967,632.581843 1357.68239,635.004988 C1344.55355,638.992654 1331.44385,643.035672 1318.29032,646.92782 C1309.63399,649.491288 1300.92102,651.854357 1292.22536,654.265702 C1284.29236,656.469017 1276.35395,658.670046 1268.40344,660.768263 C1260.32856,662.908608 1252.23245,664.910764 1244.15287,666.995539 C1231.09139,670.365405 1218.04545,673.795413 1204.973,677.122826 C1197.33507,679.065976 1189.67415,680.882802 1182.00873,682.70088 C1171.89364,685.096952 1161.76934,687.438707 1151.64778,689.791074 C1144.08231,691.547267 1136.53061,693.375467 1128.94214,695.005335 C1125.04498,695.841272 1121.12759,696.551278 1117.20745,697.243809 L1111.84762,698.188273 L1111.25502,698.287095 C1108.95438,698.653537 1108.65673,698.43923 1106.47574,697.108391 L1105.64885,697.089754 C1102.6864,697.047376 1101.4906,697.225812 1099.96574,694.332282 L1098.30582,694.575758 L1097.73269,694.664319 C1096.94625,694.780368 1096.1591,694.949702 1095.37795,695.030156 C1094.27207,695.143925 1093.39294,694.807961 1093.19344,694.260484 C1093.00303,693.729444 1093.57312,692.888595 1094.55593,692.410876 L1094.87473,692.262526 L1095.21423,692.118455 C1095.74526,691.901285 1096.38853,691.669719 1097.3349,691.293997 L1094.37734,691.121997 L1100.84502,688.786112 C1101.87888,688.410354 1102.89894,688.037303 1103.91759,687.660854 L1104.33428,687.528551 C1104.62081,687.428466 1104.89258,687.271253 1104.95612,686.856737 C1101.36361,687.554977 1097.89423,688.636108 1094.37984,689.487069 C1092.09045,690.041673 1089.77487,690.475872 1087.45647,690.89372 L1084.67453,691.393947 C1083.43912,691.62332 1082.25283,691.706338 1081.34666,690.854626 C1081.00175,690.529539 1080.15279,690.57195 1079.5262,690.465392 C1079.00707,690.382072 1078.30719,690.477873 1077.97071,690.241448 C1076.80248,689.426707 1075.5128,689.574439 1074.12645,689.966726 L1073.60208,690.123896 C1072.6205,690.43349 1071.62404,690.696029 1070.62576,690.946276 L1069.20308,691.298636 C1068.7682,691.403422 1068.31525,691.490835 1067.96779,691.408179 C1065.54733,690.824618 1063.18264,691.576941 1060.8128,692.217053 L1060.02259,692.424282 C1058.91998,692.700188 1057.83108,693.029159 1056.78086,693.320848 C1055.79657,692.054785 1054.47598,691.394009 1052.62253,691.381735 L1052.10641,691.385447 C1051.8148,691.380647 1051.53737,691.351354 1051.38582,691.232297 C1050.63302,690.637532 1049.7678,690.934715 1048.88514,691.145741 C1047.01072,691.5943 1045.16713,692.349009 1043.22125,692.222115 C1043.01548,692.211015 1042.73505,692.266153 1042.56037,692.375336 C1040.05283,693.949679 1037.05304,693.934334 1034.34234,694.86885 L1033.83766,695.055822 C1032.9077,695.420278 1031.80777,695.687857 1030.85665,695.671434 C1027.19111,695.601277 1023.61944,695.277544 1020.53916,693.789777 C1017.55196,692.344407 1014.86963,690.602025 1012.27542,688.770709 L1011.94971,688.548985 C1011.73284,688.399411 1011.52676,688.241782 1011.39316,688.048859 C1010.15338,686.224326 1008.15486,684.959366 1006.46147,683.473157 C1004.9259,682.121619 1003.73198,680.626729 1002.87241,678.930867 L1002.66448,678.502682 C1001.23638,675.445057 999.115132,672.864331 995.790142,671.065354 C994.63091,669.571082 992.640875,669.198614 990.593224,668.864899 C989.920071,668.757623 989.286428,668.552012 988.6451,668.362124 L988.161926,668.224439 C987.050109,667.922768 985.980232,667.484321 984.806748,667.355238 C983.571705,667.215676 982.556661,666.861462 981.653789,666.282661 L981.386185,666.102273 C980.997246,665.831124 980.558662,665.554805 980.06553,665.422555 C978.651045,665.043925 977.743755,664.266791 977.135782,663.229042 L977.010008,663.002728 C976.28884,661.633251 975.219228,660.747306 973.036416,660.993348 C972.33738,661.073746 971.665263,660.585493 970.927034,660.55165 C970.246551,660.516936 969.497476,660.740151 968.623567,660.872911 C969.049886,659.419817 970.706316,659.081095 971.457422,658.136887 C971.547048,657.960325 971.703436,657.780387 971.708271,657.612208 C971.743124,656.312942 972.264479,655.184833 973.646362,654.340007 L973.884708,654.201845 C975.061857,653.56019 975.298926,652.701875 975.099825,651.744782 L974.986664,651.21981 C974.970786,651.131393 974.958448,651.042133 974.952722,650.951458 C974.851683,648.859945 973.722565,647.463478 971.215946,646.961481 C971.028139,646.926433 970.905723,646.751888 970.746529,646.640642 C970.669538,646.08366 971.118431,645.904653 971.588752,645.794502 L971.805508,645.747427 C973.397006,645.419156 974.814742,644.941975 976.042586,643.823648 C976.565027,643.347907 977.397052,643.053119 978.201391,642.801935 L980.517346,642.088435 C982.247965,641.544675 984.009312,640.933194 985.876597,639.98516 C985.007198,639.855038 984.431628,639.628141 983.88421,639.715722 C981.756726,640.044981 979.614807,640.374458 977.516848,640.892687 C973.489534,641.8899 969.488745,642.466448 965.316813,642.343559 L965.413992,641.859599 C965.779308,640.177528 966.440339,638.625384 968.38128,637.397366 L966.214888,634.810217 C965.696018,634.80266 965.250899,634.725326 964.821653,634.802836 C963.008183,635.13209 961.657673,634.69196 960.317618,633.881129 C959.269626,633.247017 957.851178,632.992592 956.464478,632.524596 C956.783199,632.056902 957.380463,631.508053 957.476037,630.962041 C957.714156,629.621886 958.808407,629.014629 960.1358,628.505664 C960.672898,628.303406 961.206403,628.105938 961.748988,627.924906 C962.655343,627.62799 963.475959,627.313468 964.081627,626.59666 L964.241382,626.390904 C964.854754,625.520534 965.820513,624.946453 967.000038,624.60278 L967.299292,624.521623 C968.395566,624.239894 969.461466,623.784598 970.515737,623.359073 C971.797077,622.840149 972.268658,622.216247 972.183615,621.102349 C972.145732,620.582029 972.057085,620.060008 971.895335,619.568825 L971.789333,619.278076 C971.533683,618.645887 971.51984,618.068751 971.796738,617.384941 L972.032121,616.859279 C972.501866,615.773453 972.34044,615.503619 971.257769,614.995561 L970.939437,614.850301 C970.675528,614.726429 970.39274,614.622968 970.132424,614.494307 C970.06011,614.457515 970.057041,614.3522 970.013405,614.258151 C970.563642,613.678758 971.26034,613.393459 972.071783,613.17058 L972.34647,613.09828 C978.649164,611.484269 984.93912,609.83967 991.223524,608.154903 C993.094153,607.654312 994.939046,607.016784 996.767674,606.372397 C997.368789,606.156151 997.877081,605.711639 998.747793,605.174053 C998.070447,605.001965 997.69699,604.772017 997.37873,604.849036 L995.164837,605.406064 L990.739811,606.564014 C988.791576,607.063409 986.846408,607.929749 984.860492,607.180756 C984.453915,607.028258 983.757165,607.248316 983.200797,607.357341 C978.280043,608.318319 973.357526,609.291162 968.443174,610.276904 C967.782222,610.411185 967.143218,610.630371 966.507677,610.806887 C966.362789,610.657542 966.165707,610.549235 966.126383,610.397113 C965.490603,607.881568 966.468653,606.02119 970.919335,604.811597 C972.327468,604.428085 973.818561,604.290744 975.125705,603.666068 C975.202404,602.617207 974.455947,602.289895 973.52292,602.287405 C972.646726,602.280506 971.735909,602.438683 970.842271,602.607256 C969.726793,602.814693 968.619805,603.129732 967.504391,603.35611 C966.470111,603.559953 965.466926,603.62245 964.685393,602.804372 C965.462634,601.325855 965.246685,599.66818 966.279802,598.076887 L966.438546,597.823113 C966.900159,597.041736 966.692662,596.836766 966.003505,595.139202 C965.43231,595.134802 964.785992,595.064057 964.14111,595.148373 C962.84501,595.311183 961.454186,596.004602 960.40685,595.036635 L957.774094,595.11426 C956.896438,595.141418 956.017908,595.176876 955.136095,595.241684 C954.026497,595.322361 952.911214,595.58662 951.834407,595.756774 C950.755126,594.945558 950.83581,594.00555 951.385391,592.973228 C951.475932,592.800204 951.6333,592.642745 951.754543,592.47636 L952.085468,592.016757 L952.274017,591.745088 C952.960273,590.727296 952.820678,590.504446 951.475418,589.935963 L950.92841,589.710346 C950.113362,589.379334 949.525513,588.992803 949.469734,587.992112 L950.123019,587.509271 L950.375497,587.334314 L950.642638,587.165841 C951.722323,586.520921 952.096703,585.707888 952.140217,584.717536 L952.166008,584.021328 C952.238637,581.351525 951.830673,580.981258 948.402532,580.200762 C947.030756,579.889435 946.305046,579.180349 946.077704,578.218846 L945.971934,577.661873 L945.889174,577.28048 C945.6335,576.219423 945.169852,575.333531 943.787614,574.85078 C943.389202,574.711181 943.238438,574.165336 943.009741,573.785222 C942.417977,572.785519 941.852343,571.774766 941.233274,570.706812 L939.15583,570.893254 L938.486746,570.958698 C938.263941,570.979819 938.042247,570.995892 937.824325,570.993854 C937.098834,570.990599 936.376026,570.455757 936.625502,570.056587 C936.869622,569.674072 937.33186,569.219601 937.776262,569.088589 C938.516323,568.867877 939.32667,568.88169 940.196202,568.788063 L943.885226,565.504163 L945.932342,563.663562 L946.140916,563.465429 C946.34197,563.263622 946.504222,563.057031 946.48149,562.901817 C946.296292,561.526842 947.575892,560.80087 948.580179,559.949433 L948.72854,559.82068 C949.780138,558.880223 950.857081,557.963061 951.914101,557.02489 C952.825381,556.214406 953.546045,555.339321 953.447808,554.062251 L945.206629,554.288461 L945.115589,551.693662 C943.713412,550.661206 942.001388,551.364208 940.378669,551.272686 L938.524583,549.762858 C939.080827,548.831062 940.485956,548.361175 940.249558,547.054226 L937.546249,546.557567 C939.272977,545.145219 941.159211,545.5086 942.820607,545.039579 L945.453753,544.288341 C946.332007,544.041571 947.211191,543.803073 948.092483,543.586741 C949.867673,543.146782 951.683167,542.881425 953.434711,542.387367 C955.104207,541.912305 956.976531,541.904168 958.429874,540.761128 C958.106523,540.250326 957.624206,540.220045 957.140278,540.276668 L956.619285,540.353988 C952.357852,540.968801 948.0957,541.636899 943.831523,542.241099 C939.897431,542.795331 935.963143,543.292741 932.032512,543.804302 C931.723136,543.840936 931.419706,543.76975 930.972953,543.742162 L931.228719,541.236837 L933.589384,539.337217 C933.983062,539.023825 934.378219,538.712691 934.776895,538.404793 C935.022581,538.215221 935.394735,538.066358 935.712211,538.023682 C938.762696,537.627946 941.533606,536.198457 944.504396,535.501773 L945.251535,535.343891 C946.703369,535.073369 948.134692,534.611373 949.580974,534.300683 L950.575902,534.081886 C952.890871,533.557172 955.150483,532.905948 957.152078,531.557078 C956.458669,530.650065 955.265715,530.894187 954.164608,531.082466 C950.471692,531.710007 946.782499,532.370639 943.089778,533.055002 C940.848587,533.467663 938.613114,533.910755 936.374923,534.340558 L933.014541,534.969832 C930.776332,535.375345 930.77078,535.335178 928.060939,534.775873 C926.980424,533.081526 927.125918,531.046668 927.001974,529.082133 C926.985621,528.821973 927.072112,528.521154 927.215632,528.272748 C927.51162,527.754491 927.884365,527.252834 928.392463,526.489871 L939.007353,523.541685 L939.430211,521.869632 C946.795481,518.834357 954.484488,517.051438 962.022077,514.7949 C962.994692,514.502015 963.96182,514.187903 965.043462,513.84957 L965.100459,513.137579 L965.114781,512.925814 L965.123494,512.720158 C965.195367,510.792957 964.450812,509.445141 961.804135,509.41051 C961.697656,509.40975 961.635339,509.131303 961.493718,508.882465 C962.773366,507.609457 964.709115,508.201756 966.139331,507.417771 C967.490308,506.682336 969.183776,506.356076 970.139025,504.949455 C969.702339,504.175893 968.830784,503.943993 967.842364,503.839344 C965.582996,503.602349 963.191343,503.731974 961.132983,502.908308 C960.845622,502.787158 960.282655,503.076228 959.848771,503.117108 C959.541159,503.141877 959.237729,503.070691 958.981396,503.050884 C958.804242,502.440326 959.120415,502.01884 959.729826,501.853373 C960.332745,501.688952 960.963548,501.5726 961.585747,501.506686 L962.050213,501.466745 C963.306856,501.375562 964.504578,501.20595 965.585896,500.511285 C965.365611,499.91611 964.84677,499.89012 964.318583,499.959655 L963.946457,500.018692 C962.124822,500.335047 960.39791,500.382424 958.710656,499.630106 L959.008356,497.511265 C958.858177,497.397515 958.733932,497.215894 958.552461,497.18667 C957.38244,497.014916 956.186484,496.911033 955.02992,496.716582 C954.308545,496.598432 953.645375,496.350364 953.058307,496.19112 C952.960596,494.542315 955.24819,494.06621 955.771842,492.578499 C955.126243,492.454469 954.660091,492.295768 954.158335,492.279665 C953.230139,492.247269 952.587948,491.953772 952.359707,491.271154 L952.317181,491.118876 C952.134868,490.320165 951.371491,490.058219 950.61334,489.741738 C949.784705,489.395541 949.080905,488.87817 948.226271,488.580903 C946.496228,487.980764 946.020676,486.926033 946.611743,485.362722 C946.744093,485.015042 946.730182,484.643524 946.776827,484.300689 C947.643872,483.634118 948.552958,483.047801 949.312018,482.375406 L949.678157,482.031265 C950.571996,481.134624 951.634108,480.627295 952.853715,480.262019 C954.502373,479.762411 956.142016,479.265307 957.788909,478.777563 C958.767861,478.490502 959.758636,478.23049 960.813364,477.93755 L961.081966,477.36007 C961.165828,477.179896 961.247354,477.009375 961.336555,476.840515 C961.929343,475.724908 963.742143,475.348396 964.026126,473.889947 L964.05786,473.650409 C964.138676,472.486653 965.283102,471.251201 966.048975,469.878218 L963.783403,469.41165 L964.052947,467.501591 C962.681206,467.184901 962.325264,466.013532 961.521913,465.148429 C960.790092,464.354461 959.827806,463.715504 958.874078,462.941459 C960.170254,461.489441 961.49798,460.290289 963.228361,459.415352 C963.72829,459.16275 964.479324,458.984491 964.68928,458.638007 C965.58737,457.141092 967.230343,456.825066 968.812567,456.161906 C972.527571,454.610632 976.449973,453.805601 980.229906,452.505506 C985.633022,450.644628 991.102701,448.985182 996.542267,447.227932 C997.40664,446.946151 998.268139,446.615877 999.105207,446.265845 C1000.08553,445.853276 1000.46742,445.125365 1000.36467,444.372807 C1000.20669,443.17739 999.848896,442.047676 998.550122,441.421648 L998.324819,441.322049 C997.871209,441.137113 997.457121,440.899492 997.119984,440.735291 C997.138018,440.132272 997.517102,440.033485 997.884579,439.974137 L998.065624,439.945598 C999.293003,439.741207 1000.52979,439.647956 1001.73705,439.365735 C1005.51659,438.475256 1009.27875,437.517561 1013.04548,436.577554 C1013.47643,436.469238 1013.88817,436.28663 1014.29011,436.140869 C1014.3465,435.279231 1013.65742,435.121965 1013.0181,435.083365 L1012.78224,435.073309 C1011.34648,435.032238 1009.88204,435.048424 1008.42799,435.198228 C1006.46339,435.400725 1004.49819,435.624244 1002.53335,435.853824 L996.640865,436.545792 L994.569888,436.775939 L992.764141,435.41573 C993.738527,434.32609 994.922077,433.709199 996.496786,433.484175 C999.301682,433.084314 1002.09606,432.512955 1004.90625,432.077499 C1006.26264,431.867609 1007.21468,431.36431 1007.91758,430.046735 L1006.68467,430.133336 C1006.47761,430.148788 1006.28589,430.165777 1006.09445,430.189088 L991.277454,432.11275 C990.599192,432.198754 989.928899,432.240836 989.253185,432.280632 C987.719509,432.367528 987.27834,431.86002 988.110459,430.842732 L988.216437,430.718215 C988.664043,430.207141 988.894445,429.771559 988.982703,429.197246 C989.060443,428.713064 989.441353,428.224305 989.668097,427.774573 C987.78239,426.777827 985.414573,427.803264 983.049971,427.140488 L985.570276,426.005996 L986.095138,425.76388 C988.44375,424.664151 991.079849,424.246713 993.350858,422.884158 C994.216213,422.363226 995.53818,422.375235 996.652875,422.202141 L997.835443,422.006871 C1000.58879,421.534066 1003.29292,420.911999 1005.79339,419.530738 C1006.35989,419.217939 1007.06304,419.022645 1007.7123,418.899195 C1009.95044,418.474742 1012.20524,418.170789 1014.4315,417.700345 C1016.76234,417.204646 1019.10931,416.677923 1021.38077,415.971212 C1024.97904,414.8467 1028.52713,413.565495 1032.09529,412.343179 C1032.73429,412.123993 1033.34592,411.817615 1033.99224,411.626731 C1039.02934,410.125347 1044.08376,408.672239 1049.11354,407.142554 C1051.2091,406.502899 1053.28709,405.795319 1055.3588,405.072985 L1056.91158,404.529298 C1062.51374,402.560052 1068.11949,400.586018 1073.698,398.562672 C1078.56276,396.799498 1083.41497,395.004417 1088.27003,393.220343 L1095.55668,390.557851 C1102.86642,387.905796 1110.11966,385.091223 1117.52065,382.736119 C1133.75671,377.574529 1149.7823,371.82301 1165.96186,366.498902 C1177.90794,362.570524 1189.90503,358.783438 1201.95693,355.189674 C1214.88862,351.336391 1227.84036,347.541997 1240.82685,343.882037 C1258.53702,338.891162 1276.28644,334.03347 1294.03045,329.173491 C1300.31472,327.450844 1306.6457,325.927562 1312.93461,324.241544 C1317.56114,323.002068 1322.1189,321.44044 1326.7713,320.375783 C1335.6839,318.336442 1344.38067,315.462196 1353.25851,313.288421 C1357.36069,312.281791 1361.40878,311.028554 1365.49338,309.897885 L1378.05292,306.455094 L1392.37203,302.493264 C1394.75875,301.833745 1397.14598,301.176191 1399.53433,300.522961 C1407.13299,298.446629 1414.74067,296.367793 1422.36031,294.353888 C1426.8607,293.168406 1431.41766,292.164381 1435.9063,290.970789 C1442.19978,289.30246 1448.60104,288.536962 1454.88022,286.906731 C1456.06664,286.599964 1457.31636,286.594122 1458.54394,286.446553 C1458.89015,286.88882 1458.24631,287.014556 1458.03068,287.282992 C1457.77643,287.607652 1457.61815,288.023203 1457.27696,288.254468 L1456.97242,288.464549 C1456.24199,288.992662 1455.76364,289.553566 1455.98946,290.394169 C1456.05067,290.612257 1455.88167,291.061117 1455.67988,291.158871 C1454.44656,291.732711 1454.99566,292.922474 1454.10783,293.730236 L1456.52203,292.809461 L1458.0732,294.922887 L1461.51312,293.671727 C1462.1126,294.551746 1463.84532,294.881928 1462.96565,296.487479 L1463.117,296.680528 L1463.23838,296.813655 L1462.94566,296.44753 L1463.50801,296.321339 C1464.43468,296.101312 1465.30316,295.812707 1466.03357,295.154974 L1466.24847,294.94628 C1466.61656,294.558551 1467.31715,294.397557 1467.71945,295.014674 L1467.79123,295.139636 C1468.09557,295.737619 1468.86352,295.755623 1469.32765,295.327168 C1470.11109,294.601484 1470.8475,293.843362 1471.61102,293.096668 C1473.03104,293.020777 1474.04141,293.210331 1474.40643,294.398137 C1474.53786,294.831808 1475.18398,295.107361 1475.75229,295.586527 L1476.09979,295.215399 C1477.32308,293.939655 1478.64473,292.933311 1480.8299,293.008416 L1479.23598,294.205667 L1480.24458,294.930346 C1482.31948,294.528482 1483.4788,293.163766 1485.08853,292.102419 C1493.04489,314.900427 1495.63243,326.89954 1492.85116,328.099759 L1488.97029,329.781149 C1488.21476,330.121625 1487.48354,330.516672 1487.03834,331.135142 C1487.21471,331.730245 1487.6965,331.536978 1488.0731,331.473999 L1488.15204,331.462833 C1488.59853,331.414658 1489.04202,331.280109 1489.48831,331.175113 C1490.54951,330.925877 1491.49462,331.031179 1492.31822,331.488733 C1493.53377,332.161306 1493.95463,333.089419 1493.0625,334.126685 L1492.93865,334.262588 C1491.59355,335.656153 1491.52514,337.017424 1491.64964,338.582955 C1489.38528,340.830926 1486.58057,342.857387 1484.615,345.663174 L1487.77734,346.347056 C1488.06862,347.604638 1486.71424,348.401685 1486.06471,349.495891 L1486.70397,350.167114 C1486.84652,350.321779 1486.98344,350.482136 1487.10277,350.652229 C1487.3621,351.020042 1487.4188,351.501011 1487.70152,351.847161 C1488.6883,353.048075 1488.24467,354.191263 1487.02055,355.342681 C1486.71477,355.636155 1486.14834,355.967895 1486.15644,356.223483 C1486.19177,357.574901 1484.87913,358.439981 1484.02788,359.389252 C1481.5784,362.117106 1481.97222,364.593685 1483.1901,367.137143 C1487.59133,367.667365 1492.02326,367.799585 1496.43173,367.993584 L1498.0837,368.070127 C1499.07284,368.121491 1500.07445,368.127681 1501.05379,368.215893 L1501.7607,368.282505 C1504.7705,368.589952 1505.56881,369.046033 1508.22683,371.463819 C1508.56991,372.043459 1507.07816,372.253025 1507.59657,372.912888 C1508.31166,373.829045 1507.62706,374.694115 1506.74518,375.394057 C1506.03651,375.954256 1505.21285,376.420003 1504.40563,376.899615 L1503.41761,377.496636 L1501.86667,378.406001 L1504.76654,379.121073 C1504.89692,380.298215 1503.56123,380.7564 1502.96566,381.536073 C1502.40419,382.260774 1501.98461,383.048446 1501.48278,383.798292 L1500.863,384.712394 L1499.66824,386.440796 C1501.1549,386.323648 1502.45707,386.090899 1503.6836,386.163541 C1504.96879,386.238849 1506.17467,386.605396 1507.5679,386.874408 C1507.42549,387.968063 1507.40908,388.969844 1507.13001,389.945993 C1506.90176,390.744982 1506.59107,391.710955 1505.9081,392.264649 C1504.33606,393.527865 1504.21461,395.207207 1503.07423,396.570452 C1502.78484,396.908665 1502.78229,397.478133 1502.86041,397.892484 C1503.07722,399.011496 1503.40402,400.107539 1503.71679,401.317443 C1504.95434,402.112134 1506.44987,402.613499 1508.3418,402.391099 L1508.70122,402.340813 C1510.29657,402.083514 1511.1105,402.877426 1511.67339,403.877565 C1512.03257,404.51364 1512.07844,405.136755 1511.43788,405.781808 L1511.3005,405.911121 C1510.91816,406.244818 1510.64706,406.653785 1510.23995,407.134652 L1512.24631,408.579437 L1511.04649,409.285215 C1510.66771,409.508908 1510.30888,409.728008 1509.96635,409.963437 C1509.23896,410.457425 1508.57677,411.016725 1507.93508,411.505869 L1507.13987,414.054853 C1508.24345,414.324685 1509.80777,414.227673 1510.34911,415.51818 C1510.75946,416.5076 1510.72046,417.235069 1509.69623,418.001088 C1508.92312,418.57982 1507.79797,418.861985 1507.42215,419.781587 C1507.38635,419.867364 1507.40379,419.953521 1507.38217,420.224948 L1508.50863,420.48748 C1508.89638,420.57885 1509.29127,420.676772 1509.67785,420.789321 C1510.37245,420.990744 1511.07337,421.197992 1511.68892,421.504787 C1512.63442,421.985362 1512.68125,422.745867 1512.08875,423.630857 C1512.44633,423.96759 1511.84247,424.696483 1513.02255,424.907152 L1512.0282,423.602175 C1512.45156,423.651425 1512.90001,423.648207 1513.2947,423.754714 C1514.51032,424.065474 1514.73104,425.2744 1513.6897,426.048963 C1512.83466,426.684573 1511.90092,427.258626 1511.00335,427.860546 Z" id="Shape" transform="translate(1244.000987, 489.223276) rotate(4.000000) translate(-1244.000987, -489.223276) "></path>
        </g>
    </g>
</svg>