<?xml version="1.0" encoding="UTF-8"?>
<svg width="27px" height="24px" viewBox="0 0 27 24" version="1.1" xmlns="http://www.w3.org/2000/svg" xmlns:xlink="http://www.w3.org/1999/xlink">
    <title>icon / cart</title>
    <g id="icon-/-cart" stroke="none" stroke-width="1" fill="none" fill-rule="evenodd">
        <g transform="translate(0.000000, 0.000000)" stroke="#231F20" stroke-width="2">
            <path d="M5.60172325,0 C6.23153539,0.00503076118 6.73917383,0.163900102 6.75464441,0.360962916 L6.7550077,0.370227768 L6.769453,0.370227768 L6.79242517,1.93234515 L6.81740149,3.0236158 C6.88043239,5.34208491 6.98959402,6.73654769 7.14488636,7.20700413 C7.26267412,7.56384085 7.41503208,7.86131096 7.61362054,8.19598762 L7.80811581,8.5146235 L8.15320445,9.06847072 C8.20334856,9.19501586 8.23021147,9.30607998 8.2337932,9.4016631 L8.23345455,10.9090909 L2.90909091,10.9090909 L2.90909091,9.42344593 C2.90909091,9.32307516 2.93609158,9.2047501 2.99009293,9.06847072 L3.33518157,8.5146235 C3.63232352,8.03688074 3.84477481,7.67244333 3.99841102,7.20700413 L4.0313425,7.0905858 L4.0637339,6.94052461 C4.2324066,6.05844693 4.33577676,3.86834798 4.37384438,0.370227768 L4.38828968,0.370227768 C4.38828968,0.182324024 4.83571978,0.0271152393 5.41543868,0.00310175799 L5.60172325,0 Z M13.6017232,0 C14.2315354,0.00503076118 14.7391738,0.163900102 14.7546444,0.360962916 L14.7550077,0.370227768 L14.769453,0.370227768 L14.7924252,1.93234515 L14.8174015,3.0236158 C14.8804324,5.34208491 14.989594,6.73654769 15.1448864,7.20700413 C15.2626741,7.56384085 15.4150321,7.86131096 15.6136205,8.19598762 L15.8081158,8.5146235 L16.1532044,9.06847072 C16.2033486,9.19501586 16.2302115,9.30607998 16.2337932,9.4016631 L16.2334545,10.9090909 L10.9090909,10.9090909 L10.9090909,9.42344593 C10.9090909,9.32307516 10.9360916,9.2047501 10.9900929,9.06847072 L11.3351816,8.5146235 C11.6323235,8.03688074 11.8447748,7.67244333 11.998411,7.20700413 L12.0313425,7.0905858 L12.0637339,6.94052461 C12.2324066,6.05844693 12.3357768,3.86834798 12.3738444,0.370227768 L12.3882897,0.370227768 C12.3882897,0.182324024 12.8357198,0.0271152393 13.4154387,0.00310175799 L13.6017232,0 Z M21.6017232,0 C22.2315354,0.00503076118 22.7391738,0.163900102 22.7546444,0.360962916 L22.7550077,0.370227768 L22.769453,0.370227768 L22.7924252,1.93234515 L22.8174015,3.0236158 C22.8804324,5.34208491 22.989594,6.73654769 23.1448864,7.20700413 C23.2626741,7.56384085 23.4150321,7.86131096 23.6136205,8.19598762 L23.8081158,8.5146235 L24.1532044,9.06847072 C24.2033486,9.19501586 24.2302115,9.30607998 24.2337932,9.4016631 L24.2334545,10.9090909 L18.9090909,10.9090909 L18.9090909,9.42344593 C18.9090909,9.32307516 18.9360916,9.2047501 18.9900929,9.06847072 L19.3351816,8.5146235 C19.6323235,8.03688074 19.8447748,7.67244333 19.998411,7.20700413 L20.0313425,7.0905858 L20.0637339,6.94052461 C20.2324066,6.05844693 20.3357768,3.86834798 20.3738444,0.370227768 L20.3882897,0.370227768 C20.3882897,0.182324024 20.8357198,0.0271152393 21.4154387,0.00310175799 L21.6017232,0 Z" id="Shape" stroke-linejoin="round"></path>
            <path d="M1,11 L25.9090909,11 C26.4613757,11 26.9090909,11.4477153 26.9090909,12 L26.9090909,23.0909091 C26.9090909,23.6431938 26.4613757,24.0909091 25.9090909,24.0909091 L1,24.0909091 C0.44771525,24.0909091 4.62529132e-14,23.6431938 4.61852778e-14,23.0909091 L4.61852778e-14,12 C4.61176424e-14,11.4477153 0.44771525,11 1,11 Z M0,18 L27,18" id="Combined-Shape"></path>
        </g>
    </g>
</svg>