<?xml version="1.0" encoding="UTF-8"?>
<svg width="1920px" height="386px" viewBox="0 0 1920 386" version="1.1" xmlns="http://www.w3.org/2000/svg" xmlns:xlink="http://www.w3.org/1999/xlink">
    <title>Rectangle</title>
    <g id="Symbols" stroke="none" stroke-width="1" fill="none" fill-rule="evenodd">
        <g id="Footer" transform="translate(118.000000, 0.000000)" fill="#231F20">
            <g transform="translate(-118.000000, 0.000000)" id="Rectangle">
                <path d="M0,386 L1920,386 L1920,2 L1623.00781,2 L1526.07626,7.64271718 L1522.03906,4 L1445.13281,2 L1323.34766,0 L1240.5,4 L1208.32422,2 L1201.6,2.62909574 C1179.30523,4.68698193 1163.97691,5.80674453 1155.61504,5.98838356 L1155.01562,6 C1146.01528,6.15244726 1144.10513,5.15244726 1149.28516,3 L1011.76172,4 L845.066406,0 L814.113281,2 L751.085937,4 C727.145833,2 654.617187,1 533.5,1 C530.215631,1 524.030102,4.02086867 520,4 L517.697613,3.98421728 C484.177195,3.70085475 428.6653,1 396.133333,1 C372.003116,1 345.661797,6 309.109375,6 L301.106292,5.99 C247.935968,5.86333333 147.567204,4.53333333 0,2 L0,386 Z"></path>
            </g>
        </g>
    </g>
</svg>