<?xml version="1.0" encoding="UTF-8"?>
<svg width="22px" height="22px" viewBox="0 0 22 22" version="1.1" xmlns="http://www.w3.org/2000/svg" xmlns:xlink="http://www.w3.org/1999/xlink">
    <title>Shape</title>
    <g id="Symbols" stroke="none" stroke-width="1" fill="none" fill-rule="evenodd">
        <g id="Footer" transform="translate(-984.000000, -261.000000)" fill="#D2C8B4" fill-rule="nonzero">
            <g transform="translate(9.000000, 0.000000)" id="Group-15">
                <g transform="translate(856.000000, 80.000000)">
                    <g id="facebook" transform="translate(0.000000, 181.000000)">
                        <g id="instagram" transform="translate(119.000000, 0.000000)">
                            <path d="M16,0 C19.2383969,0 21.8775718,2.56557489 21.9958615,5.77506174 L22,6 L22,16 C22,19.2383969 19.4344251,21.8775718 16.2249383,21.9958615 L16,22 L6,22 C2.76160306,22 0.122428238,19.4344251 0.00413847206,16.2249383 L0,16 L0,6 C0,2.76160306 2.56557489,0.122428238 5.77506174,0.00413847206 L6,0 L16,0 Z M16,2 L6,2 C3.85780461,2 2.10892112,3.68396847 2.00489531,5.80035966 L2,6 L2,16 C2,18.1421954 3.68396847,19.8910789 5.80035966,19.9951047 L6,20 L16,20 C18.1421954,20 19.8910789,18.3160315 19.9951047,16.1996403 L20,16 L20,6 C20,3.85780461 18.3160315,2.10892112 16.1996403,2.00489531 L16,2 Z M6.57709117,8.70878336 C7.54687783,6.78203422 9.64296899,5.69441347 11.7766835,6.01081652 C13.9554044,6.33389346 15.6661065,8.04459556 15.9891835,10.2233165 C16.3055865,12.357031 15.2179658,14.4531222 13.2912166,15.4229088 C11.3644675,16.3926955 9.03299419,16.0175298 7.50773217,14.4922678 C5.98247016,12.9670058 5.60730452,10.6355325 6.57709117,8.70878336 Z M11.2915332,7.96698295 C10.0790118,7.86585759 8.91633953,8.50971657 8.36356114,9.60796358 C7.78168914,10.7640131 8.00678853,12.1628971 8.92194574,13.0780543 C9.83710295,13.9932115 11.2359869,14.2183109 12.3920364,13.6364389 C13.5480859,13.0545669 14.2006583,11.7969122 14.0108165,10.5166835 C13.8262011,9.27170008 12.8864156,8.28142081 11.6680942,8.02247999 L11.4833165,7.98918348 L11.2915332,7.96698295 Z M16,4 C16.5522847,4 17,4.44771525 17,5 C17,5.55228475 16.5522847,6 16,6 C15.4477153,6 15,5.55228475 15,5 C15,4.44771525 15.4477153,4 16,4 Z" id="Shape"></path>
                        </g>
                    </g>
                </g>
            </g>
        </g>
    </g>
</svg>