<?xml version="1.0" encoding="UTF-8"?>
<svg width="27px" height="22px" viewBox="0 0 27 22" version="1.1" xmlns="http://www.w3.org/2000/svg" xmlns:xlink="http://www.w3.org/1999/xlink">
    <title>twitter</title>
    <g id="Symbols" stroke="none" stroke-width="1" fill="none" fill-rule="evenodd">
        <g id="Footer" transform="translate(-917.000000, -261.000000)" fill="#D2C8B4">
            <g transform="translate(9.000000, 0.000000)" id="Group-15">
                <g transform="translate(856.000000, 80.000000)">
                    <g id="facebook" transform="translate(0.000000, 181.000000)">
                        <g id="twitter" transform="translate(52.000000, 0.000000)">
                            <path d="M26.972971,0.0125823305 C25.7988927,0.840747444 24.4989462,1.47416088 23.1231924,1.88842986 C21.6106947,0.149332589 19.1733318,-0.460530555 17.0200446,0.361334795 C14.8667574,1.18320015 13.4555895,3.26196817 13.4864855,5.56656227 L13.4864855,6.7926064 C9.11032304,6.90607973 4.96796187,4.82109127 2.45208827,1.23862647 C2.45208827,1.23862647 -2.45208827,12.2730237 8.58230895,17.1772002 C6.05730485,18.8911686 3.04936415,19.7505803 0,19.6292885 C11.0343972,25.7595092 24.5208827,19.6292885 24.5208827,5.52978094 C24.5197537,5.18827081 24.4869182,4.84760312 24.4227992,4.51216431 C25.6741037,3.2781424 26.5571304,1.72010968 26.972971,0.0125823305 Z" id="Path"></path>
                        </g>
                    </g>
                </g>
            </g>
        </g>
    </g>
</svg>