<?xml version="1.0" encoding="UTF-8"?>
<svg width="28px" height="20px" viewBox="0 0 28 20" version="1.1" xmlns="http://www.w3.org/2000/svg" xmlns:xlink="http://www.w3.org/1999/xlink">
    <title>Shape</title>
    <g id="Symbols" stroke="none" stroke-width="1" fill="none" fill-rule="evenodd">
        <g id="Footer" transform="translate(-1045.000000, -262.000000)" fill="#D2C8B4">
            <g transform="translate(9.000000, 0.000000)" id="Group-15">
                <g transform="translate(856.000000, 80.000000)">
                    <g id="facebook" transform="translate(0.000000, 181.000000)">
                        <g id="youtube" transform="translate(179.999285, 1.000951)">
                            <path d="M11.8041199,0.014996895 L14.1069543,0 C15.7518927,0.00685261036 22.6128467,0.063057518 24.5007146,0.524048509 C25.6984624,0.862913332 26.623478,1.81653774 26.9257146,3.02404851 C27.3222549,5.22242125 27.5147404,7.45274228 27.5007146,9.68654851 C27.5086222,11.8869663 27.316161,14.0835341 26.9257146,16.2490485 C26.623478,17.4565593 25.6984624,18.4101837 24.5007146,18.7490485 C22.5896034,19.2601596 15.582196,19.3169497 14.0485884,19.3232598 L12.5725167,19.3170862 C10.1411919,19.2937289 4.65701085,19.1920115 3.00071456,18.7490485 C1.82825688,18.4282429 0.908652436,17.5181189 0.575714556,16.3490485 C0.179174165,14.1506758 -0.0133113265,11.9203547 0.000714555812,9.68654851 C-0.0102405352,7.4694357 0.182232752,5.25599289 0.575714556,3.07404851 C0.877951075,1.86653774 1.80296675,0.912913332 3.00071456,0.574048509 C4.49990375,0.173102563 9.13523464,0.0517351415 11.8041199,0.014996895 Z M10.9382146,5.59904851 L10.9382146,13.7740485 L18.1257146,9.68654851 L10.9382146,5.59904851 Z" id="Shape"></path>
                        </g>
                    </g>
                </g>
            </g>
        </g>
    </g>
</svg>